<svg width="41" height="41" viewBox="0 0 41 41" fill="none" xmlns="http://www.w3.org/2000/svg">
<rect x="0.092041" y="0.5" width="40" height="40" rx="5" fill="#3EFFBE"/>
<path d="M14.4906 9.59629H30.6503C30.7816 9.59629 30.8831 9.71204 30.8646 9.84196C30.4385 12.8368 29.2852 14.111 26.7497 14.218C25.5906 14.2669 23.779 14.218 23.779 14.218C22.792 14.3268 22.3701 15.2719 21.7642 17.9366C21.0024 22.5373 19.1866 24.2469 14.8137 26.5201C14.7807 26.5373 14.7418 26.5084 14.7502 26.4722L17.5899 14.218H13.3429C12.3955 14.2553 11.7795 14.3697 10.9365 15.1246C7.915 17.8301 9.01252 9.47034 14.4906 9.59629Z" fill="#050505"/>
<path d="M22.984 19.6953C23.7182 16.8173 26.5935 16.0643 26.9139 16.8197C27.003 17.1983 26.226 20.9468 25.7058 23.7146C24.6233 28.6469 20.5403 31.838 14.0124 31.3574C13.9132 31.3501 13.8391 31.2602 13.854 31.1619C14.1043 29.5067 14.791 28.4959 17.9095 26.6383C21.9019 24.2603 22.2963 22.3907 22.984 19.6953Z" fill="#050505"/>
</svg>
