<svg width="85" height="315" viewBox="0 0 85 315" fill="none" xmlns="http://www.w3.org/2000/svg">
<path d="M74.685 303.196L74.6869 301.696H74.6869L74.685 303.196ZM0.911453 302.045C0.324949 302.63 0.323785 303.58 0.908853 304.167L10.4431 313.724C11.0282 314.311 11.9779 314.312 12.5644 313.727C13.1509 313.142 13.1521 312.192 12.567 311.606L4.09213 303.11L12.5878 294.635C13.1743 294.05 13.1755 293.1 12.5904 292.514C12.0053 291.927 11.0556 291.926 10.4691 292.511L0.911453 302.045ZM0.546631 2.2063V3.7063H74.6948V2.2063V0.706299H0.546631V2.2063ZM82.6948 10.2063H81.1948V295.196H82.6948H84.1948V10.2063H82.6948ZM74.685 303.196L74.6869 301.696L1.97265 301.607L1.97081 303.107L1.96897 304.607L74.6832 304.696L74.685 303.196ZM82.6948 295.196H81.1948C81.1948 298.789 78.2798 301.701 74.6869 301.696L74.685 303.196L74.6832 304.696C79.9344 304.703 84.1948 300.448 84.1948 295.196H82.6948ZM74.6948 2.2063V3.7063C78.2847 3.7063 81.1948 6.61645 81.1948 10.2063H82.6948H84.1948C84.1948 4.95959 79.9415 0.706299 74.6948 0.706299V2.2063Z" fill="url(#paint0_linear_292_644)"/>
<defs>
<linearGradient id="paint0_linear_292_644" x1="0.546631" y1="2.5306" x2="85.8202" y2="2.2063" gradientUnits="userSpaceOnUse">
<stop stop-color="#131313"/>
<stop offset="1" stop-color="#329977"/>
</linearGradient>
</defs>
</svg>
